<?xml version="1.0" encoding="UTF-8" standalone="no"?>
<svg width="13px" height="8px" viewBox="0 0 13 8" version="1.1" xmlns="http://www.w3.org/2000/svg" xmlns:xlink="http://www.w3.org/1999/xlink" xmlns:sketch="http://www.bohemiancoding.com/sketch/ns">
    <!-- Generator: Sketch 3.3.2 (12043) - http://www.bohemiancoding.com/sketch -->
    <title>menu</title>
    <desc>Created with Sketch.</desc>
    <defs></defs>
    <g id="Page-1" stroke="none" stroke-width="1" fill="none" fill-rule="evenodd" sketch:type="MSPage">
        <path d="M0,1.5 C0,0.671572875 0.66254437,0 1.4912653,0 L11.5087347,0 C12.3323378,0 13,0.665797234 13,1.5 C13,2.32842712 12.3374556,3 11.5087347,3 L1.4912653,3 C0.667662216,3 0,2.33420277 0,1.5 Z M0,6.5 C0,5.67157288 0.66831553,5 1.50473881,5 L6.49526119,5 C7.32630549,5 8,5.66579723 8,6.5 C8,7.32842712 7.33168447,8 6.49526119,8 L1.50473881,8 C0.673694512,8 0,7.33420277 0,6.5 Z" id="menu" fill="#FF7D00" sketch:type="MSShapeGroup"></path>
    </g>
</svg>